<svg version="1.1" xmlns="http://www.w3.org/2000/svg" xmlns:xlink="http://www.w3.org/1999/xlink" x="0px" y="0px"
	 viewBox="0 0 111 111" enable-background="new 0 0 111 111" xml:space="preserve">
<g>
	<g>
		<path d="M55.1,6.3c26.8,0,48.8,21.6,48.9,48.9c0.1,26.7-21.6,48.9-49,48.9c-27,0-48.9-22-48.8-49C6.2,27.8,28.3,6.3,55.1,6.3z
			 M102.4,45.2c-0.1-0.5-0.2-0.9-0.3-1.2C99.4,33.1,93.8,24.1,85,17.1C77.2,11,68.3,7.6,58.4,6.9c-2.4-0.2-4.8-0.2-7.2,0
			c-2.8,0.2-5.7,0.7-8.4,1.5C27.3,12.5,15.1,23.6,9.6,38.6c-2,5.5-3,11.2-3,17.1c0,3.6,0.5,7.2,1.4,10.7
			c2.7,10.9,8.4,19.9,17.2,26.8c8.2,6.4,17.6,9.8,28,10.3c3,0.1,6.1-0.1,9.1-0.5c4.4-0.7,8.6-1.9,12.6-3.7
			c11.3-5.2,19.5-13.5,24.6-24.9c0.1-0.1,0.1-0.3,0.2-0.5c-0.2,0.1-0.3,0.2-0.4,0.3c-0.8,0.5-1.7,0.9-2.6,1.2
			c-2.9,0.9-5.8,0.9-8.7,0.3c-2.4-0.6-4.5-1.7-6.1-3.6c-1.6-1.9-2.6-4.1-3.3-6.4c-0.9-3.6-1-7.3-0.4-10.9c0.4-2.1,1.1-4,2.2-5.8
			c1.8-3,4.4-5.1,7.8-6.1c2.5-0.7,5-0.8,7.5-0.5c2.4,0.3,4.7,1.2,6.6,2.8C102.2,45.1,102.3,45.1,102.4,45.2z M84.8,58.1
			c2.6-3,5.7-4.5,9.6-4.1c3.8,0.3,6.8,2.1,8.9,5.4c0.6-1.9,0.1-11.4-0.8-13.6c-1,1.7-1.9,3.3-2.9,4.9c-0.1,0-0.1,0-0.1,0
			c-0.2-0.1-0.3-0.3-0.5-0.4c-2.1-1.7-4.5-2.3-7.1-2c-2.1,0.2-3.8,1.3-5.1,3c-1.4,1.8-2,3.9-2,6.1C84.8,57.7,84.8,57.9,84.8,58.1z
			 M91.5,69.9c0.2,0,0.3,0,0.5,0c1.6-0.1,3-0.6,4.1-1.8c2-2.1,1.7-5.8-1.2-7.2c-0.3-0.1-0.5-0.3-0.8-0.4c-1.2-0.5-2.5-0.6-3.8-0.4
			c-2.2,0.2-3.9,1.2-5.3,2.9c-0.1,0.1-0.2,0.3-0.1,0.4c0.2,1.7,0.8,3.3,2,4.7c0.5,0.6,1.1,1,1.8,1.3C89.5,69.8,90.5,70,91.5,69.9z"
			/>
		<path d="M48.4,71.2c1.3-1.6,2.6-3.2,3.9-4.9c0.1,0.1,0.2,0.2,0.3,0.3c1.9,1.9,4.2,3,6.9,3.2c1.3,0.1,2.5,0.1,3.8-0.2
			c1-0.3,1.8-0.7,2.6-1.4c2-1.9,1.8-5.7-0.9-7.2c-0.7-0.4-1.5-0.7-2.4-0.8c-2-0.2-3.9,0-5.7,0.9c-0.8,0.4-1.6,0.9-2.3,1.5
			c-0.1,0.1-0.3,0.2-0.5,0.1c-1.5-0.4-3-0.8-4.5-1.3c0,0-0.1,0-0.1-0.1c0-6.3,0-12.5,0-18.9c7.5,0,15,0,22.6,0c0,2,0,4.1,0,6.2
			c-1.3,0-2.6,0-3.9,0c-1.3,0-2.6,0-3.9,0c-1.3,0-2.6,0-3.9,0c-1.3,0-2.6,0-3.9,0c0,2.7,0,5.3,0,7.9c0.1-0.1,0.1-0.1,0.2-0.1
			c1.9-1.8,4.1-2.5,6.6-2.6c2-0.1,3.8,0.3,5.5,1.2c3,1.7,4.7,4.2,5.2,7.6c0.3,2.1,0.2,4.2-0.6,6.1c-1,2.6-2.8,4.4-5.2,5.7
			c-1.5,0.8-3.1,1.2-4.7,1.4c-2.9,0.3-5.7,0.2-8.5-0.6c-2.5-0.7-4.6-2-6.4-3.8C48.6,71.4,48.5,71.3,48.4,71.2z"/>
		<path d="M18.6,75.5c0-0.2,0-0.3,0-0.4c0-1.6,0-3.1,0-4.7c0-0.3,0.1-0.5,0.3-0.6c3.5-2.6,7-5.2,10.4-8c1.4-1.2,2.8-2.3,4.1-3.6
			c0.7-0.7,1.3-1.5,1.8-2.4c0.6-1,1-2.1,0.9-3.3c-0.1-1.4-0.7-2.4-1.8-3.2c-1.2-0.8-2.6-1-4-0.9c-3.2,0.1-5.9,1.3-8.1,3.6
			C22.1,51.9,22,52,21.9,52c-1.3-1.5-2.6-3.1-4-4.6c0.3-0.3,0.5-0.6,0.8-0.8c1.8-1.8,4.1-3,6.6-3.8c3.2-0.9,6.5-1.1,9.8-0.2
			c2.2,0.6,4.1,1.7,5.6,3.3c1.3,1.4,2.1,3.1,2.3,5c0.4,3.1-0.4,5.8-2.1,8.3c-1.1,1.5-2.3,2.9-3.7,4.2c-2.1,2-4.4,3.8-6.8,5.6
			c-0.1,0.1-0.2,0.2-0.3,0.4c4.4,0,8.8,0,13.3,0c0,2.1,0,4.1,0,6.2C35.1,75.5,26.9,75.5,18.6,75.5z"/>
	</g>
</g>
</svg>
